HIERARCHY
ROOT Hips
{
	OFFSET 31.594500 4.855294 99.059799
	CHANNELS 6 Xposition Yposition Zposition Xrotation Yrotation Zrotation
	JOINT spine
	{
		OFFSET 0.000000 -0.477353 8.301041
		CHANNELS 3 Xrotation Yrotation Zrotation
		JOINT spine1
		{
			OFFSET 0.000000 -0.000001 10.456497
			CHANNELS 3 Xrotation Yrotation Zrotation
			JOINT spine2
			{
				OFFSET 0.000000 -0.000002 10.019203
				CHANNELS 3 Xrotation Yrotation Zrotation
				JOINT Neck
				{
					OFFSET 0.000000 -1.226414 25.723503
					CHANNELS 3 Xrotation Yrotation Zrotation
					JOINT Head
					{
						OFFSET 0.000000 -0.000001 7.771744
						CHANNELS 3 Xrotation Yrotation Zrotation
						End Site
						{
							OFFSET 0.000000 6.203937 18.811996
						}
					}
				}
				JOINT RightShoulder
				{
					OFFSET -4.218800 0.587438 10.820000
					CHANNELS 3 Xrotation Yrotation Zrotation
					JOINT RightArm
					{
						OFFSET 0.000000 -0.000002 14.191406
						CHANNELS 3 Xrotation Yrotation Zrotation
						JOINT RightArmRoll
						{
							OFFSET 0.000000 -0.000001 7.164078
							CHANNELS 3 Xrotation Yrotation Zrotation
							JOINT RightForeArm
							{
								OFFSET 0.000000 -0.000003 20.866501
								CHANNELS 3 Xrotation Yrotation Zrotation
								JOINT RightForeArmRoll
								{
									OFFSET 0.000000 -0.000001 8.039215
									CHANNELS 3 Xrotation Yrotation Zrotation
									JOINT RightHand
									{
										OFFSET 0.000000 -0.000002 16.132996
										CHANNELS 3 Xrotation Yrotation Zrotation
										End Site
										{
											OFFSET 0.000000 0.000000 0.100006
										}
									}
								}
							}
						}
					}
				}
				JOINT LeftShoulder
				{
					OFFSET 4.218801 0.587438 10.820000
					CHANNELS 3 Xrotation Yrotation Zrotation
					JOINT LeftArm
					{
						OFFSET 0.000000 -0.000002 14.191406
						CHANNELS 3 Xrotation Yrotation Zrotation
						JOINT LeftArmRoll
						{
							OFFSET 0.000000 -0.000001 7.164078
							CHANNELS 3 Xrotation Yrotation Zrotation
							JOINT LeftForeArm
							{
								OFFSET 0.000000 -0.000003 20.866501
								CHANNELS 3 Xrotation Yrotation Zrotation
								JOINT LeftForeArmRoll
								{
									OFFSET 0.000000 -0.000001 8.039215
									CHANNELS 3 Xrotation Yrotation Zrotation
									JOINT LeftHand
									{
										OFFSET 0.000000 -0.000002 16.132996
										CHANNELS 3 Xrotation Yrotation Zrotation
										End Site
										{
											OFFSET 0.000000 0.000000 0.100006
										}
									}
								}
							}
						}
					}
				}
			}
		}
	}
	JOINT RightUpLeg
	{
		OFFSET -7.357729 1.131810 -1.349213
		CHANNELS 3 Xrotation Yrotation Zrotation
		JOINT RightUpLegRoll
		{
			OFFSET 0.000000 -0.000003 18.916801
			CHANNELS 3 Xrotation Yrotation Zrotation
			JOINT RightLeg
			{
				OFFSET 0.000000 0.000004 -23.425598
				CHANNELS 3 Xrotation Yrotation Zrotation
				JOINT RightLegRoll
				{
					OFFSET 0.000000 -0.000004 23.502296
					CHANNELS 3 Xrotation Yrotation Zrotation
					JOINT RightFoot
					{
						OFFSET 0.000000 -0.000003 19.561707
						CHANNELS 3 Xrotation Yrotation Zrotation
						JOINT RightToeBase
						{
							OFFSET 0.000000 -0.000002 16.352600
							CHANNELS 3 Xrotation Yrotation Zrotation
							End Site
							{
								OFFSET 0.006931 0.912836 7.919434
							}
						}
					}
				}
			}
		}
	}
	JOINT LeftUpLeg
	{
		OFFSET 7.357729 1.131810 -1.349213
		CHANNELS 3 Xrotation Yrotation Zrotation
		JOINT LeftUpLegRoll
		{
			OFFSET 0.000000 -0.000003 18.916901
			CHANNELS 3 Xrotation Yrotation Zrotation
			JOINT LeftLeg
			{
				OFFSET 0.000000 -0.000004 23.425507
				CHANNELS 3 Xrotation Yrotation Zrotation
				JOINT LeftLegRoll
				{
					OFFSET 0.000000 -0.000004 23.719498
					CHANNELS 3 Xrotation Yrotation Zrotation
					JOINT LeftFoot
					{
						OFFSET 0.000000 -0.000003 19.344406
						CHANNELS 3 Xrotation Yrotation Zrotation
						JOINT LeftToeBase
						{
							OFFSET 0.000000 -0.000002 16.352600
							CHANNELS 3 Xrotation Yrotation Zrotation
							End Site
							{
								OFFSET -0.031063 0.912836 7.919434
							}
						}
					}
				}
			}
		}
	}
}
MOTION
Frames: 10
Frame Time: 0.041667
33.495499 -6.431380 120.205009 -1.917023 -0.753278 5.557648 -0.697656 -0.074801 0.438944 2.608731 -0.163473 0.873512 4.253725 -0.152997 0.875406 14.091422 -1.007304 -3.640927 -10.645488 2.634885 -3.614265 -7.877624 -69.313600 -10.023096 -76.390612 -107.908397 -56.932140 0.000002 0.000008 0.000001 4.500815 -15.724378 0.687793 -0.000008 0.000002 -3.012690 -5.000182 -7.998992 0.000131 5.542283 62.313680 -5.918489 -48.095115 102.703164 38.112025 0.000001 -0.000000 0.000000 20.158076 13.427112 -1.893398 0.000000 -0.000008 3.000000 -5.000199 7.998803 -0.000148 -1.280266 -171.701052 3.222607 -179.999991 0.000005 -1.214006 169.974599 -3.190635 -0.917748 -0.000005 -0.000006 0.111238 67.427115 6.908685 2.180699 25.456955 -7.355614 0.000001 -7.613129 169.736307 -3.119219 -0.000003 -0.000004 -1.191420 -18.182741 4.423105 1.539144 -0.000002 0.000002 -0.284114 68.105981 -6.883607 -2.211076 25.456957 7.355614 -0.000000 
33.480297 -6.424893 120.036011 -1.933344 -0.746793 5.566152 -0.696806 -0.076324 0.437790 2.610502 -0.165931 0.871448 4.255497 -0.155480 0.873371 14.154765 -1.014636 -3.645644 -10.670160 2.617109 -3.618477 -7.870851 -69.320054 -10.015964 -76.466918 -107.904613 -57.047663 0.000002 0.000008 0.000000 4.543192 -15.755619 0.694609 -0.000010 0.000003 -3.012689 -5.000181 -7.998992 0.000130 5.488652 62.289645 -5.860707 -47.997679 102.700890 38.038833 0.000000 -0.000000 0.000001 20.233665 13.428960 -1.902129 -0.000000 -0.000008 3.000000 -5.000202 7.998802 -0.000148 -1.274721 -171.696039 3.221437 -179.999991 0.000003 -1.212996 170.006468 -3.188970 -0.916624 -0.000006 -0.000005 0.110269 67.426316 6.908830 2.180579 25.456959 -7.355616 0.000001 -7.585087 169.712839 -3.137807 -0.000004 -0.000004 -1.192599 -18.169618 4.424053 1.538081 -0.000001 0.000002 -0.283926 68.101050 -6.883970 -2.210556 25.456960 7.355613 0.000000 
33.498997 -6.434047 119.908005 -1.949821 -0.740239 5.572749 -0.696071 -0.078042 0.436514 2.612012 -0.168567 0.869183 4.257007 -0.158144 0.871137 14.219581 -1.015587 -3.649863 -10.694391 2.594053 -3.622371 -7.862331 -69.322356 -10.006605 -76.528629 -107.904162 -57.147691 0.000000 0.000010 0.000000 4.580789 -15.785151 0.700805 -0.000010 0.000002 -3.012690 -5.000183 -7.998992 0.000131 5.428188 62.266655 -5.794946 -47.895960 102.698649 37.962000 -0.000000 -0.000000 0.000001 20.309810 13.431208 -1.911042 -0.000000 -0.000007 2.999999 -5.000202 7.998803 -0.000148 -1.270127 -171.689017 3.222467 -179.999991 0.000004 -1.212995 170.035469 -3.189253 -0.915010 -0.000006 -0.000006 0.109316 67.423864 6.909035 2.180473 25.456957 -7.355614 0.000000 -7.557469 169.687417 -3.157887 -0.000004 -0.000003 -1.193790 -18.160729 4.425638 1.537309 -0.000002 0.000002 -0.283733 68.097170 -6.884345 -2.209970 25.456950 7.355612 0.000000 
33.482494 -6.427099 119.732010 -1.966508 -0.733577 5.577734 -0.695388 -0.079955 0.435139 2.613382 -0.171417 0.866760 4.258377 -0.161022 0.868750 14.285472 -1.010929 -3.653705 -10.718381 2.566522 -3.626022 -7.852406 -69.320594 -9.995412 -76.575819 -107.906286 -57.232334 0.000001 0.000009 -0.000000 4.614620 -15.812962 0.706484 -0.000007 0.000002 -3.012680 -5.000181 -7.998992 0.000131 5.362052 62.244573 -5.722557 -47.791134 102.696443 37.882609 0.000001 0.000000 0.000000 20.386603 13.433747 -1.920124 0.000001 -0.000007 3.000000 -5.000198 7.998802 -0.000148 -1.266763 -171.682009 3.225610 -179.999991 0.000005 -1.212996 170.060823 -3.191477 -0.913946 -0.000006 -0.000005 0.108405 67.420237 6.909202 2.180534 25.456959 -7.355615 -0.000000 -7.530453 169.660984 -3.179429 -0.000003 -0.000004 -1.195010 -18.155864 4.427681 1.536807 -0.000001 0.000002 -0.283542 68.094124 -6.884721 -2.209334 25.456957 7.355613 0.000000 
33.498295 -6.422686 119.580994 -1.983490 -0.726766 5.581392 -0.694706 -0.082061 0.433692 2.614722 -0.174519 0.864224 4.259717 -0.164154 0.866251 14.352241 -1.001415 -3.657294 -10.742347 2.535279 -3.629533 -7.841457 -69.314850 -9.982816 -76.608583 -107.910773 -57.301838 0.000001 0.000008 0.000001 4.645764 -15.839019 0.711754 -0.000009 0.000003 -3.012681 -5.000182 -7.998992 0.000131 5.291497 62.223426 -5.644951 -47.684231 102.694380 37.801638 0.000001 -0.000003 0.000000 20.464041 13.436481 -1.929342 0.000002 -0.000007 3.000001 -5.000200 7.998803 -0.000148 -1.264912 -171.673991 3.230653 -179.999991 0.000004 -1.212996 170.081805 -3.195612 -0.912467 -0.000006 -0.000005 0.107560 67.415559 6.909340 2.180755 25.456955 -7.355616 0.000001 -7.504285 169.632584 -3.202148 -0.000004 -0.000005 -1.196260 -18.155119 4.429981 1.536573 -0.000001 0.000002 -0.283362 68.091727 -6.885147 -2.208566 25.456959 7.355612 -0.000000 
33.472301 -6.416984 119.406998 -2.000798 -0.719767 5.584036 -0.693959 -0.084360 0.432202 2.616163 -0.177912 0.861617 4.261169 -0.167578 0.863685 14.419291 -0.987807 -3.660753 -10.766180 2.501135 -3.632995 -7.829816 -69.305206 -9.969178 -76.626936 -107.917187 -57.356022 0.000002 0.000009 0.000001 4.675247 -15.863519 0.716737 -0.000007 0.000002 -3.012681 -5.000181 -7.998991 0.000131 5.217713 62.203270 -5.563495 -47.576188 102.692536 37.719955 0.000000 -0.000002 -0.000001 20.542207 13.439311 -1.938675 0.000001 -0.000007 3.000000 -5.000200 7.998802 -0.000148 -1.264860 -171.665002 3.237475 -179.999991 0.000005 -1.212995 170.097638 -3.201689 -0.912616 -0.000006 -0.000006 0.106807 67.410149 6.909517 2.181030 25.456959 -7.355615 -0.000001 -7.479130 169.603255 -3.226024 -0.000005 -0.000004 -1.197530 -18.158292 4.432346 1.536574 -0.000001 0.000002 -0.283201 68.089944 -6.885510 -2.207747 25.456957 7.355615 -0.000001 
33.466995 -6.422956 119.255997 -2.018516 -0.712539 5.585948 -0.693092 -0.086851 0.430695 2.617834 -0.181629 0.858984 4.262829 -0.171327 0.861098 14.486526 -0.970855 -3.664186 -10.790207 2.464872 -3.636483 -7.817837 -69.291654 -9.954929 -76.631485 -107.925192 -57.395678 0.000002 0.000008 0.000000 4.704121 -15.886433 0.721544 -0.000008 0.000002 -3.012679 -5.000183 -7.998992 0.000131 5.141888 62.184050 -5.479559 -47.468654 102.690876 37.639103 0.000000 -0.000002 -0.000002 20.620999 13.442053 -1.948057 -0.000001 -0.000007 3.000000 -5.000198 7.998802 -0.000147 -1.266892 -171.655003 3.245881 -179.999991 0.000005 -1.211998 170.107596 -3.208676 -0.912262 -0.000006 -0.000006 0.106170 67.404439 6.909662 2.181318 25.456955 -7.355615 -0.000001 -7.455225 169.572915 -3.250877 -0.000003 -0.000004 -1.198839 -18.165571 4.434586 1.536827 -0.000001 0.000002 -0.283068 68.088373 -6.885892 -2.207020 25.456959 7.355612 0.000000 
33.462696 -6.417804 119.073013 -2.036706 -0.705046 5.587429 -0.692049 -0.089531 0.429198 2.619844 -0.185713 0.856369 4.264841 -0.175441 0.858532 14.553352 -0.951338 -3.667703 -10.814422 2.427267 -3.640100 -7.805923 -69.274367 -9.940499 -76.621854 -107.934180 -57.420444 0.000000 0.000008 0.000000 4.733450 -15.907731 0.726296 -0.000010 0.000002 -3.012679 -5.000183 -7.998992 0.000131 5.065246 62.165834 -5.394521 -47.362605 102.689456 37.560030 0.000001 -0.000002 0.000000 20.700707 13.444685 -1.957541 0.000001 -0.000008 3.000001 -5.000200 7.998804 -0.000148 -1.271299 -171.645017 3.255771 -179.999991 0.000004 -1.211998 170.110916 -3.217577 -0.913620 -0.000006 -0.000005 0.105674 67.398592 6.909755 2.181802 25.456955 -7.355616 -0.000000 -7.432768 169.541647 -3.276559 -0.000004 -0.000005 -1.200190 -18.176860 4.436495 1.537304 -0.000001 0.000002 -0.282971 68.087123 -6.886260 -2.206269 25.456957 7.355617 -0.000001 
33.482796 -6.398768 118.906998 -2.055420 -0.697247 5.588778 -0.690776 -0.092402 0.427736 2.622315 -0.190198 0.853814 4.267321 -0.179956 0.856032 14.619470 -0.930005 -3.671416 -10.838937 2.389106 -3.643923 -7.794421 -69.253440 -9.926284 -76.598550 -107.944016 -57.430717 0.000001 0.000008 -0.000000 4.764257 -15.927395 0.731098 -0.000008 0.000002 -3.012669 -5.000180 -7.998992 0.000131 4.988999 62.148656 -5.309782 -47.258970 102.688370 37.483573 0.000001 0.000001 -0.000000 20.781119 13.447037 -1.967014 -0.000000 -0.000007 3.000001 -5.000198 7.998804 -0.000148 -1.278359 -171.635045 3.266955 -179.999991 0.000005 -1.211999 170.106872 -3.226407 -0.914380 -0.000006 -0.000006 0.105344 67.392951 6.909871 2.182181 25.456957 -7.355615 0.000001 -7.412015 169.508425 -3.302771 -0.000005 -0.000004 -1.201579 -18.192043 4.437890 1.537992 0.000000 0.000002 -0.282921 68.085764 -6.886627 -2.205523 25.456955 7.355616 0.000001 
33.465397 -6.397499 118.725006 -2.074729 -0.689104 5.590298 -0.689210 -0.095462 0.426338 2.625375 -0.195122 0.851365 4.270382 -0.184909 0.853642 14.684586 -0.907622 -3.675422 -10.863957 2.351182 -3.648033 -7.783668 -69.228851 -9.912662 -76.561742 -107.954077 -57.426871 0.000001 0.000009 0.000000 4.797626 -15.945603 0.736094 -0.000010 0.000002 -3.012671 -5.000179 -7.998992 0.000131 4.914285 62.132394 -5.226630 -47.159427 102.687557 37.411333 0.000000 0.000001 0.000001 20.862345 13.449185 -1.976535 -0.000000 -0.000008 3.000001 -5.000199 7.998803 -0.000147 -1.288365 -171.623092 3.279253 -179.999991 0.000004 -1.211998 170.094701 -3.237120 -0.915957 -0.000006 -0.000005 0.105204 67.387951 6.909934 2.182607 25.456957 -7.355615 0.000001 -7.393108 169.475230 -3.329619 -0.000004 -0.000005 -1.203011 -18.211123 4.438575 1.538881 -0.000001 0.000001 -0.282926 68.084282 -6.886943 -2.204879 25.456960 7.355611 0.000001 
